PathFileType	4	(X/Y/Z)	./resultDataOpenSim/trcMotMarkerGrf/sub09/qtm-02-04.trc
DataRate	CameraRate	NumFrames	NumMarkers	Units	OrigDataRate	OrigDataStartFrame	OrigNumFrames
250.000000	250.000000	15	24	m	250.000000	346	461
Frame#	Time	L.Toe.Tip			R.Toe.Tip			L.Ankle.Lat			R.Ankle.Lat			L.Ankle.Med			R.Ankle.Med			L.Heel			R.Heel			L.Knee.Lat			R.Knee.Lat			L.Knee.Med			R.Knee.Med			L.Thigh.Upper			R.Thigh.Upper			L.ASIS			R.ASIS			V.Sacral			L.Acromium			R.Acromium			C7			L.Elbow			R.Elbow			L.Wrist.Lat			R.Wrist.Lat
		X1	Y1	Z1	X2	Y2	Z2	X3	Y3	Z3	X4	Y4	Z4	X5	Y5	Z5	X6	Y6	Z6	X7	Y7	Z7	X8	Y8	Z8	X9	Y9	Z9	X10	Y10	Z10	X11	Y11	Z11	X12	Y12	Z12	X13	Y13	Z13	X14	Y14	Z14	X15	Y15	Z15	X16	Y16	Z16	X17	Y17	Z17	X18	Y18	Z18	X19	Y19	Z19	X20	Y20	Z20	X21	Y21	Z21	X22	Y22	Z22	X23	Y23	Z23	X24	Y24	Z24

346	1.38	0.91142572	0.11633072	-0.043183059	1.1526726	0.04067814	0.079229187	0.84015346	0.25250669	-0.077393532	1.0048404	0.054340455	0.12098144	0.86603036	0.24275328	0.017472941	1.0120579	0.094093538	0.028451262	0.76230871	0.27505104	-0.031932033	0.93400753	0.034436335	0.074414622	1.1620763	0.49980409	-0.092175356	1.1094655	0.50076828	0.17774673	1.1661268	0.48948228	0.034762768	1.0816945	0.49162308	0.053780329	1.0006822	0.8790345	-0.12022895	1.0144547	0.89953516	0.24939111	1.0728526	0.97110035	-0.067969302	1.090713	0.98550007	0.16969349	0.90888358	1.0288724	0.059943505	1.0464867	1.4290627	-0.12526034	1.0425076	1.4435976	0.20636329	0.97617377	1.4823776	0.042034189	0.90587403	1.0879592	-0.16845067	0.90842962	1.1065807	0.30886518	1.031314	0.85681305	-0.20610302	1.0775957	0.88799838	0.31173895
347	1.384	0.93099932	0.11483493	-0.044486421	1.1527115	0.04064126	0.07921979	0.85548693	0.24888073	-0.077238303	1.0048766	0.054423907	0.12083522	0.88190165	0.23917192	0.017486153	1.0123008	0.094100428	0.028222617	0.77703315	0.26880108	-0.031338799	0.93411442	0.034656434	0.074160531	1.1727051	0.50313461	-0.091659459	1.1110312	0.50060134	0.17761568	1.1780294	0.49282884	0.035489395	1.0830935	0.49157267	0.053683513	1.0072	0.88094819	-0.12035298	1.0188605	0.90017713	0.24921287	1.079075	0.97293661	-0.068560646	1.0962109	0.98653754	0.16997101	0.91491482	1.0302067	0.059678894	1.0518489	1.4303262	-0.12538878	1.0484618	1.4450337	0.20617465	0.98188911	1.4836663	0.041982531	0.90994669	1.0899394	-0.16833674	0.91473987	1.1079287	0.3091393	1.0344502	0.85835706	-0.20703979	1.0849434	0.89001936	0.31120196
348	1.388	0.95046876	0.11323457	-0.045600778	1.1527742	0.040620487	0.079202715	0.8709459	0.24503899	-0.077059897	1.0049476	0.05452733	0.1206728	0.89819446	0.23541632	0.01743713	1.0126206	0.094092443	0.027946642	0.79201806	0.26248113	-0.030769482	0.93441054	0.034925847	0.073851663	1.1832147	0.50635841	-0.091163847	1.1123767	0.50043461	0.17746182	1.1948546	0.49669726	0.037464493	1.0844059	0.4915656	0.053548868	1.0136358	0.88279924	-0.12048102	1.0232328	0.90074877	0.24903102	1.0852537	0.97472866	-0.069321837	1.1016894	0.98750766	0.17024073	0.92119805	1.0313972	0.05914122	1.0572297	1.4315215	-0.125511	1.0544336	1.4464163	0.20597802	0.9875767	1.4848825	0.041925419	0.9139894	1.0918003	-0.16834012	0.92105838	1.1092116	0.30940722	1.0376209	0.8598649	-0.20798826	1.0922747	0.89196438	0.31065817
349	1.392	0.96990959	0.11157487	-0.046552927	1.1528441	0.040608775	0.079175897	0.88653914	0.24099003	-0.076870993	1.0050255	0.054654331	0.12051177	0.91494709	0.23150911	0.01730185	1.012972	0.094075362	0.027669225	0.80725944	0.2561031	-0.030229423	0.93478583	0.035167681	0.073660032	1.1933981	0.50952246	-0.090741323	1.1135029	0.50027433	0.17729512	1.2141484	0.50078239	0.040049203	1.0855935	0.49164958	0.053369906	1.0200025	0.88459067	-0.12063845	1.0277463	0.90131703	0.24886751	1.091335	0.97645958	-0.070069705	1.1071534	0.98840899	0.17050412	0.92752771	1.0322724	0.058375948	1.0626404	1.4326531	-0.12563608	1.0604795	1.4477639	0.20572877	0.99325401	1.4860298	0.041861257	0.91802411	1.0935792	-0.1683862	0.92738561	1.1104253	0.30967178	1.0408283	0.86132232	-0.20894787	1.0995648	0.89382322	0.31010503
350	1.396	0.98941391	0.10989722	-0.047352393	1.1529045	0.040595195	0.079137327	0.90229072	0.23675231	-0.076683635	1.005088	0.054801742	0.12035367	0.93188365	0.22749992	0.017169584	1.0132909	0.094080852	0.027466934	0.82276809	0.24962587	-0.029743114	0.93520551	0.035315163	0.073677288	1.2032114	0.51263239	-0.090410604	1.1145805	0.50010706	0.17712995	1.2314077	0.50464995	0.042076024	1.0867437	0.49178728	0.053176426	1.0263599	0.88632181	-0.12083185	1.0324479	0.90190544	0.24872867	1.0972941	0.97811737	-0.070694854	1.1126151	0.98924395	0.17076336	0.93379021	1.0329322	0.057593778	1.0680897	1.4337283	-0.12578151	1.0666319	1.4491001	0.20539753	0.99894706	1.4871168	0.041799208	0.92206435	1.0952976	-0.16843361	0.93371834	1.1115656	0.3099341	1.0440797	0.86271342	-0.20991973	1.1068125	0.89559413	0.30953133
351	1.4	1.0090409	0.1082077	-0.047984784	1.1529441	0.040567927	0.079085994	0.91822331	0.23234526	-0.076501796	1.0051359	0.054959715	0.12018715	0.94870004	0.22343638	0.017121639	1.0136036	0.094166312	0.02737878	0.83854924	0.24299199	-0.02933887	0.9356207	0.035390539	0.073801506	1.2127659	0.51563465	-0.090150062	1.1158076	0.49992771	0.17697596	1.242469	0.50791369	0.042471678	1.0880828	0.4918391	0.053114493	1.0327928	0.88799051	-0.12107853	1.0372646	0.90248868	0.24860626	1.1031358	0.97969626	-0.071173663	1.1180815	0.990017	0.1710168	0.94002054	1.033675	0.057084879	1.0735758	1.434751	-0.12595979	1.072838	1.4504235	0.20502915	1.0046735	1.4881493	0.041747659	0.92612356	1.0969555	-0.16847896	0.94005035	1.1126284	0.31019286	1.047385	0.86402779	-0.21090264	1.1140328	0.89728107	0.30892854
352	1.404	1.0288335	0.10648767	-0.048452182	1.1529685	0.040523383	0.07901783	0.93434188	0.22778101	-0.076324246	1.0051914	0.055113774	0.12000015	0.96535854	0.21933737	0.017158264	1.0139863	0.094343418	0.027350759	0.85457213	0.23615952	-0.029010049	0.93591425	0.035468042	0.073831911	1.2221597	0.51845523	-0.089938134	1.1172747	0.49974118	0.17683984	1.2465742	0.51048128	0.041050177	1.0897657	0.49167776	0.053330539	1.0393715	0.88958744	-0.12140545	1.04214	0.90303551	0.24848729	1.1088777	0.98119367	-0.071521887	1.1235484	0.99073013	0.17126026	0.94629494	1.0346556	0.056970574	1.0790841	1.4357088	-0.12615533	1.0789896	1.4516869	0.20470817	1.0104293	1.4891252	0.041702306	0.93021674	1.098542	-0.16853761	0.94637868	1.1136095	0.31044811	1.0507465	0.86526275	-0.21189074	1.1212354	0.89888386	0.30829905
353	1.408	1.0488018	0.10471654	-0.048789818	1.1530143	0.040475891	0.078918317	0.9506386	0.22306966	-0.076150115	1.0052695	0.055250595	0.11978986	0.98199493	0.2151997	0.017249248	1.0143075	0.09451103	0.027266598	0.87078148	0.22912776	-0.02872392	0.9360258	0.035576934	0.073665683	1.2313882	0.52105399	-0.089776359	1.1188954	0.49955131	0.17672663	1.2474394	0.51264456	0.03878601	1.0916797	0.4913369	0.053737162	1.04609	0.89109805	-0.12181277	1.0470824	0.90353419	0.24834779	1.1145394	0.98260796	-0.071760465	1.1290107	0.99138043	0.17149323	0.95253973	1.0357589	0.057106997	1.0845983	1.4365791	-0.12633001	1.085022	1.4528336	0.20446906	1.0161861	1.4900286	0.041650956	0.93435359	1.1000471	-0.1686192	0.95270677	1.1145078	0.31070386	1.0541514	0.86642755	-0.2128747	1.1284164	0.90039779	0.30765547
354	1.412	1.0688905	0.10287937	-0.049037122	1.1531238	0.040440846	0.078775111	0.96710956	0.21822861	-0.075978862	1.0053586	0.055367078	0.11956728	0.99871421	0.21102229	0.017382703	1.0142644	0.09453796	0.027038845	0.88716065	0.22193321	-0.028468164	0.93600802	0.035696064	0.073358227	1.2404083	0.52345795	-0.089678721	1.1205087	0.49936268	0.17664064	1.2499153	0.51479682	0.036944145	1.0935602	0.49097847	0.054071978	1.0528288	0.89251359	-0.12224293	1.0521448	0.90399579	0.24816024	1.1201377	0.98393726	-0.071903775	1.1344694	0.99196376	0.17172238	0.95854387	1.0367826	0.057256414	1.0901129	1.4373524	-0.1264624	1.0909428	1.4538501	0.20429079	1.021913	1.4908458	0.041589	0.9385313	1.1014626	-0.16871758	0.95903685	1.1153243	0.31096358	1.0575803	0.86754118	-0.21384512	1.1355603	0.90181993	0.30701432
355	1.416	1.0889957	0.10098364	-0.049198484	1.1532893	0.040415111	0.078604549	0.98375838	0.21327953	-0.075806223	1.0054332	0.055473798	0.11935193	1.0155373	0.20681513	0.017564984	1.0138411	0.094435364	0.026694074	0.9037519	0.21461534	-0.02825407	0.93595754	0.035820278	0.07303445	1.2492166	0.52572622	-0.089654365	1.1220676	0.49918742	0.17658552	1.2557773	0.51707101	0.035987028	1.0952315	0.49072687	0.054191331	1.0594389	0.89383284	-0.12261779	1.057385	0.90444127	0.24790888	1.1256873	0.98517915	-0.071960186	1.1399248	0.99248044	0.17195442	0.96420797	1.0376224	0.057292239	1.0956335	1.4380346	-0.12656275	1.0967976	1.4547583	0.20414679	1.027607	1.4915868	0.041522503	0.94273874	1.1027823	-0.16882	0.96536349	1.1160598	0.31122433	1.0610256	0.86861315	-0.21479764	1.1426508	0.90315135	0.30638337
356	1.42	1.109025	0.099081237	-0.049241288	1.153458	0.040391842	0.078444435	1.0005818	0.20823516	-0.075622326	1.0054809	0.055586584	0.11915908	1.032455	0.20259286	0.017794524	1.0134146	0.094345749	0.026359987	0.92059072	0.20720342	-0.028070864	0.93593427	0.035969323	0.072766871	1.2578182	0.52788697	-0.089703907	1.1235971	0.49903506	0.17654708	1.2638323	0.51934878	0.035601822	1.0966827	0.49060594	0.05414458	1.065876	0.89505446	-0.12291056	1.0628232	0.90488507	0.24758401	1.131202	0.98633082	-0.071935584	1.1453721	0.99293619	0.1721845	0.96961642	1.038276	0.05722811	1.1011659	1.438632	-0.12665045	1.1026349	1.4555771	0.20401999	1.0332945	1.4922637	0.041457103	0.94697192	1.1040045	-0.16892092	0.97168011	1.1167128	0.31147957	1.0644983	0.8696299	-0.21573451	1.1496974	0.90439518	0.30575218
357	1.424	1.1289783	0.097236819	-0.049143737	1.1535897	0.040374345	0.078322512	1.0175654	0.20309458	-0.075417066	1.0055119	0.055713309	0.11899259	1.0494933	0.19836187	0.018030652	1.0133093	0.094352585	0.026158753	0.93766111	0.19972656	-0.027874865	0.93591541	0.036151606	0.072504728	1.2661912	0.52992386	-0.089820957	1.1250098	0.49888812	0.17649691	1.2725191	0.52148818	0.03537752	1.0980252	0.49058223	0.054041051	1.0721979	0.896173	-0.12314852	1.0684357	0.90532846	0.24717915	1.1366951	0.98738934	-0.071835702	1.1508111	0.99333648	0.17239734	0.97488365	1.0387571	0.057111756	1.1067106	1.4391474	-0.12673655	1.108475	1.4563116	0.20389599	1.0390036	1.4928647	0.041393603	0.95123862	1.1051364	-0.16902913	0.97798589	1.117278	0.31172541	1.0680179	0.87056619	-0.216662	1.1567424	0.90555538	0.30510031
358	1.428	1.1489507	0.095468428	-0.048930465	1.1536707	0.040363859	0.078253579	1.0346994	0.19786094	-0.075188098	1.0055448	0.05584671	0.1188484	1.0667147	0.19412144	0.018206942	1.01354	0.094414352	0.026144011	0.95493515	0.19221059	-0.027636927	0.93583787	0.036368784	0.072152231	1.2743449	0.53179203	-0.08999028	1.1261506	0.49870451	0.17643928	1.2810797	0.52342273	0.035117005	1.0994282	0.4905895	0.05397041	1.078468	0.89717975	-0.1233644	1.074164	0.90575496	0.24671673	1.1421805	0.98835179	-0.071666802	1.1562551	0.99368162	0.17258079	0.98007838	1.0390707	0.056953122	1.1122636	1.4395824	-0.12682482	1.1143116	1.4569603	0.20376284	1.0447399	1.4933756	0.041331613	0.95554429	1.1061949	-0.16916416	0.9842824	1.1177502	0.31196238	1.0715962	0.87140768	-0.21758505	1.1638215	0.90663621	0.30441801
359	1.432	1.1690277	0.093751177	-0.048644197	1.1537046	0.040357322	0.078248132	1.0519833	0.19256023	-0.074937298	1.0055898	0.055971226	0.11872235	1.0841648	0.18987883	0.018292678	1.013936	0.09446975	0.02628276	0.97241122	0.18466923	-0.027366344	0.93569815	0.036628747	0.071724227	1.2823525	0.53343956	-0.090194327	1.1269609	0.4984592	0.1764169	1.2893525	0.52513759	0.034785069	1.1009581	0.49056298	0.053958159	1.084714	0.89806634	-0.12357466	1.0798882	0.90611493	0.24628181	1.147672	0.9892153	-0.071435536	1.161719	0.9939712	0.17273416	0.98525537	1.0392429	0.056744796	1.1178235	1.4399388	-0.12691712	1.1201407	1.4575206	0.20361904	1.0504856	1.4938016	0.041269676	0.9598887	1.1071957	-0.16933385	0.99057055	1.1181302	0.31219508	1.0752306	0.87215786	-0.21850139	1.1709242	0.90763928	0.30371661
360	1.436	1.1892319	0.092064423	-0.048302549	1.1537176	0.040359968	0.078291241	1.0694168	0.18722449	-0.074661857	1.0056472	0.056077352	0.1186145	1.1018384	0.18564887	0.01832949	1.0142726	0.094508389	0.026419452	0.9901008	0.17710877	-0.027083116	0.93556952	0.036920868	0.071349939	1.2902854	0.53484223	-0.090428476	1.1275027	0.49817223	0.17645758	1.2973951	0.5266384	0.034403057	1.1024771	0.49050419	0.053948373	1.0909426	0.89883135	-0.12378417	1.085396	0.90630921	0.24602754	1.1531835	0.98997703	-0.071148687	1.167201	0.99420843	0.17286433	0.9904673	1.0393092	0.056507266	1.1233928	1.4402189	-0.1270146	1.1259666	1.4579934	0.20347773	1.0562161	1.4941567	0.041206519	0.96427874	1.1081382	-0.16951313	0.99685176	1.118425	0.31242988	1.0789131	0.8728246	-0.21940575	1.1780082	0.90856231	0.30301761
